<?xml version="1.0" encoding="utf-8"?>
<!-- Generator: Adobe Illustrator 18.0.0, SVG Export Plug-In . SVG Version: 6.00 Build 0)  -->
<!DOCTYPE svg PUBLIC "-//W3C//DTD SVG 1.1//EN" "http://www.w3.org/Graphics/SVG/1.1/DTD/svg11.dtd">
<svg version="1.1" id="Camada_1" xmlns="http://www.w3.org/2000/svg" xmlns:xlink="http://www.w3.org/1999/xlink" x="0px" y="0px"
	 viewBox="0 0 2355 1080" enable-background="new 0 0 2355 1080" xml:space="preserve">
<g>
	<g>
		<path fill="#1D1D1B" stroke="#FF0049" stroke-width="100" stroke-miterlimit="10" d="M1077.3,1010.5H226.8c-27.1,0-49-22-49-49
			V111c0-27.1,22-49,49-49h850.5c27.1,0,49,22,49,49v850.5C1126.3,988.6,1104.4,1010.5,1077.3,1010.5z"/>
		<g>
			<g>
				<path fill="none" stroke="#FF0049" stroke-width="100" stroke-linecap="round" stroke-linejoin="round" d="M241.8,1004.8
					c239.5-73.4,433-204.8,567.3-360"/>
				<path fill="none" stroke="#FF0049" stroke-width="100" stroke-linecap="round" stroke-linejoin="round" d="M811.1,818.4
					c4.2-63.2,6.1-126.2,5.9-189c-62.5,17.6-126.6,29.9-191.4,36.5"/>
			</g>
		</g>
		<text transform="matrix(1 0 0 1 282.9077 504.3429)" fill="#FF0049" font-family="'Ubuntu-Bold'" font-size="407.3239">MS</text>
	</g>
	<text transform="matrix(1 0 0 1 253.0435 524)" display="none"><tspan x="0" y="0" display="inline" fill="#EDEDED" font-family="'Ubuntu-Medium'" font-size="64">MISAEL ALVES</tspan><tspan x="0" y="76.8" display="inline" fill="#EDEDED" font-family="'Ubuntu-Medium'" font-size="64">FRONT-END</tspan></text>
	<text transform="matrix(1 0 0 1 1300.0435 504.3429)"><tspan x="0" y="0" fill="#FF0049" font-family="'Ubuntu-Regular'" font-size="300">Misael</tspan><tspan x="0" y="360" fill="#FF0049" font-family="'Ubuntu-Regular'" font-size="300">Alves</tspan></text>
</g>
</svg>
